<svg width="19" height="18" viewBox="0 0 19 18" fill="none" xmlns="http://www.w3.org/2000/svg">
    <path d="M16.57 1.43c-1.94-1.94-5.15-1.9-7.14.09L7.29 3.65A.996.996 0 108.7 5.06l2.13-2.13c1.22-1.21 3.15-1.26 4.32-.09.56.56.86 1.31.85 2.12-.01.82-.35 1.6-.94 2.19l-2.13 2.13a.996.996 0 00.71 1.7c.26 0 .51-.1.71-.29l2.13-2.13c.96-.94 1.5-2.21 1.52-3.56.02-1.35-.49-2.62-1.43-3.57zM9.29 12.93l-2.13 2.13c-1.21 1.22-3.15 1.26-4.32.09-.55-.56-.85-1.31-.84-2.12.01-.82.35-1.6.94-2.19l2.13-2.13A.996.996 0 103.66 7.3L1.53 9.42C.56 10.38.02 11.65 0 13a4.92 4.92 0 001.43 3.57c.96.95 2.22 1.43 3.49 1.43 1.31 0 2.64-.51 3.66-1.52l2.13-2.13a.996.996 0 000-1.41.999.999 0 00-1.42-.01z" fill="#282C34"/>
    <path d="M10.79 5.79l-5 5a.996.996 0 00.71 1.7c.26 0 .51-.1.71-.29l5-5a.996.996 0 000-1.41c-.39-.39-1.03-.39-1.42 0z" fill="#282C34"/>
</svg>
