<svg width="296" height="270" viewBox="0 0 296 270" fill="none" xmlns="http://www.w3.org/2000/svg">
    <path fill-rule="evenodd" clip-rule="evenodd" d="M241.185 121.704c0 66.671-53.991 120.718-120.592 120.718C53.991 242.422 0 188.375 0 121.704S53.991.985 120.593.985c66.601 0 120.592 54.048 120.592 120.719zm-43.852 0c0 42.427-34.358 76.821-76.74 76.821-42.383 0-76.741-34.394-76.741-76.821s34.358-76.821 76.741-76.821c42.382 0 76.74 34.394 76.74 76.821z" fill="#282C34"/>
    <path d="M296 198.525c0 9.091-7.362 16.461-16.444 16.461-9.082 0-16.445-7.37-16.445-16.461 0-9.092 7.363-16.462 16.445-16.462S296 189.433 296 198.525zM296 253.397c0 9.091-7.362 16.461-16.444 16.461-9.082 0-16.445-7.37-16.445-16.461 0-9.092 7.363-16.462 16.445-16.462S296 244.305 296 253.397z" fill="#282C34"/>
</svg>
