<svg width="19" height="18" viewBox="0 0 19 18" fill="none" xmlns="http://www.w3.org/2000/svg">
<path d="M16.5706 1.42915C14.6306 -0.510847 11.4206 -0.470847 9.43057 1.51915L7.29057 3.64915C6.90057 4.03915 6.90057 4.66915 7.29057 5.05915C7.68057 5.44915 8.31057 5.44915 8.70057 5.05915L10.8306 2.92915C12.0506 1.71915 13.9806 1.66915 15.1506 2.83915C15.7106 3.39915 16.0106 4.14915 16.0006 4.95915C15.9906 5.77915 15.6506 6.55915 15.0606 7.14915L12.9306 9.27915C12.5406 9.66915 12.5406 10.2992 12.9306 10.6892C13.1306 10.8892 13.3806 10.9792 13.6406 10.9792C13.9006 10.9792 14.1506 10.8792 14.3506 10.6892L16.4806 8.55915C17.4406 7.61915 17.9806 6.34915 18.0006 4.99915C18.0206 3.64915 17.5106 2.37915 16.5706 1.42915Z" fill="#282C34"/>
<path d="M9.29057 12.9292L7.16057 15.0592C5.95057 16.2792 4.01057 16.3192 2.84057 15.1492C2.29057 14.5892 1.99057 13.8392 2.00057 13.0292C2.01057 12.2092 2.35057 11.4292 2.94057 10.8392L5.07057 8.70915C5.46057 8.31915 5.46057 7.68915 5.07057 7.29915C4.68057 6.90915 4.05057 6.90915 3.66057 7.29915L1.53057 9.41915C0.560567 10.3792 0.0205667 11.6492 0.000566711 12.9992C-0.0194333 14.3592 0.490567 15.6192 1.43057 16.5692C2.39057 17.5192 3.65057 17.9992 4.92057 17.9992C6.23057 17.9992 7.56057 17.4892 8.58057 16.4792L10.7106 14.3492C11.1006 13.9592 11.1006 13.3292 10.7106 12.9392C10.3206 12.5392 9.68057 12.5392 9.29057 12.9292Z" fill="#282C34"/>
<path d="M10.7906 5.78915L5.79057 10.7892C5.40057 11.1792 5.40057 11.8092 5.79057 12.1992C5.99057 12.3992 6.24057 12.4892 6.50057 12.4892C6.76057 12.4892 7.01057 12.3892 7.21057 12.1992L12.2106 7.19915C12.6006 6.80915 12.6006 6.17915 12.2106 5.78915C11.8206 5.39915 11.1806 5.39915 10.7906 5.78915Z" fill="#282C34"/>
</svg>
