<svg width="16" height="17" viewBox="0 0 16 17" fill="none" xmlns="http://www.w3.org/2000/svg">
<rect x="0.000976562" y="0.998352" width="16" height="16.0025" rx="8" fill="#282C34"/>
<path d="M9.40656 9.00085L10.6984 7.71085C11.0885 7.32085 11.0885 6.69085 10.6984 6.30085C10.3082 5.91085 9.67793 5.91085 9.28776 6.30085L7.99597 7.59085L6.70419 6.29085C6.31402 5.90085 5.68376 5.90085 5.2936 6.29085C4.90344 6.68085 4.90344 7.31085 5.2936 7.70085L6.58539 9.00085L5.2936 10.2909C4.90344 10.6809 4.90344 11.3109 5.2936 11.7009C5.48368 11.9009 5.73378 12.0009 5.99389 12.0009C6.254 12.0009 6.5041 11.9009 6.70419 11.7109L7.99597 10.4109L9.28776 11.7009C9.48785 11.9009 9.73795 12.0009 9.99806 12.0009C10.2582 12.0009 10.5083 11.9009 10.7084 11.7109C11.0985 11.3209 11.0985 10.6909 10.7084 10.3009L9.40656 9.00085Z" fill="white"/>
</svg>
