<svg width="16" height="17" viewBox="0 0 16 17" fill="none" xmlns="http://www.w3.org/2000/svg">
<path d="M9.40544 8.0025L15.6974 1.7125C16.0875 1.3225 16.0875 0.6925 15.6974 0.3025C15.3073 -0.0875 14.6771 -0.0875 14.287 0.3025L7.995 6.5925L1.70303 0.2925C1.31291 -0.0975 0.682713 -0.0975 0.292591 0.2925C-0.0975305 0.6825 -0.0975305 1.3125 0.292591 1.7025L6.58456 8.0025L0.292591 14.2925C-0.0975305 14.6825 -0.0975305 15.3125 0.292591 15.7025C0.482651 15.9025 0.732729 16.0025 0.99281 16.0025C1.25289 16.0025 1.50297 15.9025 1.70303 15.7125L7.995 9.4125L14.287 15.7025C14.487 15.9025 14.7371 16.0025 14.9972 16.0025C15.2573 16.0025 15.5073 15.9025 15.7074 15.7125C16.0975 15.3225 16.0975 14.6925 15.7074 14.3025L9.40544 8.0025Z" fill="#282C34"/>
</svg>
