<svg width="296" height="270" viewBox="0 0 296 270" fill="none" xmlns="http://www.w3.org/2000/svg">
<path fill-rule="evenodd" clip-rule="evenodd" d="M241.185 121.704C241.185 188.375 187.194 242.422 120.593 242.422C53.9911 242.422 0 188.375 0 121.704C0 55.0329 53.9911 0.985363 120.593 0.985363C187.194 0.985363 241.185 55.0329 241.185 121.704ZM197.333 121.704C197.333 164.131 162.975 198.525 120.593 198.525C78.2098 198.525 43.8519 164.131 43.8519 121.704C43.8519 79.2769 78.2098 44.883 120.593 44.883C162.975 44.883 197.333 79.2769 197.333 121.704Z" fill="#282C34"/>
<path d="M296 198.525C296 207.616 288.638 214.986 279.556 214.986C270.474 214.986 263.111 207.616 263.111 198.525C263.111 189.433 270.474 182.063 279.556 182.063C288.638 182.063 296 189.433 296 198.525Z" fill="#282C34"/>
<path d="M296 253.397C296 262.488 288.638 269.858 279.556 269.858C270.474 269.858 263.111 262.488 263.111 253.397C263.111 244.305 270.474 236.935 279.556 236.935C288.638 236.935 296 244.305 296 253.397Z" fill="#282C34"/>
</svg>
